<?xml version="1.0" encoding="UTF-8" standalone="yes"?>
<svg xmlns="http://www.w3.org/2000/svg" xmlns:xlink="http://www.w3.org/1999/xlink" width="56.006pt" height="56.006pt" version="1.1" viewBox="683.997 752.997 56.006 56.006">
  <!--
	Exported with Concepts: Smarter Sketching
	Version: 3963 on iOS 18.4
	https://concepts.app/
	-->
  <title>82B7DF8B-B78E-4C5D-99EB-A80442A03C6B</title>
  <desc>Drawing exported from Concepts: Smarter Sketching</desc>
  <defs></defs>
  <g id="New_Layer_1" opacity="1.000">
    <path id="STROKE_8d2dfa25-a2bc-4e17-b266-f1ff31385458" opacity="1.000" fill="none" stroke="#474444" stroke-width="4.276" stroke-opacity="1.000" stroke-linecap="round" stroke-linejoin="round" d="M 687.000 806.000 L 737.000 806.000 L 737.000 756.000 L 687.000 756.000 L 687.000 781.000 L 687.000 806.000 "></path>
    <path id="STROKE_ee82945e-04ce-443a-9350-0d5c5c89b502" opacity="1.000" fill="none" stroke="#474444" stroke-width="3.574" stroke-opacity="1.000" stroke-linecap="round" stroke-linejoin="round" d="M 693.842 765.333 L 718.842 765.333 "></path>
    <path id="STROKE_7cba54e7-6e2c-4e4d-90ee-36a7ecae45de" opacity="1.000" fill="none" stroke="#474444" stroke-width="3.574" stroke-opacity="1.000" stroke-linecap="round" stroke-linejoin="round" d="M 693.041 776.934 L 708.041 776.934 "></path>
    <path id="STROKE_31645fb1-9c4b-4da3-9306-8fd959e1ea84" opacity="1.000" fill="none" stroke="#474444" stroke-width="3.574" stroke-opacity="1.000" stroke-linecap="round" stroke-linejoin="round" d="M 693.916 784.892 L 718.916 784.892 "></path>
    <path id="STROKE_fd2ff7a6-965e-4bd0-8070-91516b7d270a" opacity="1.000" fill="none" stroke="#474444" stroke-width="3.574" stroke-opacity="1.000" stroke-linecap="round" stroke-linejoin="round" d="M 693.116 796.493 L 708.116 796.493 "></path>
    <path id="STROKE_1c5f529a-147f-4270-8e0e-643cd6991948" opacity="1.000" fill="none" stroke="#b0e8a1" stroke-width="3.574" stroke-opacity="1.000" stroke-linecap="round" stroke-linejoin="round" d="M 724.879 766.446 Q 724.852 766.562 725.054 767.197 Q 725.255 767.832 725.417 768.196 Q 725.579 768.560 725.692 768.718 Q 725.804 768.876 726.022 768.974 Q 726.239 769.072 726.542 768.817 Q 726.845 768.562 726.985 768.372 Q 727.124 768.182 727.266 767.995 Q 727.409 767.808 728.107 766.728 Q 728.805 765.649 729.381 764.842 Q 729.957 764.035 730.312 763.562 Q 730.666 763.089 732.138 761.711 "></path>
    <path id="STROKE_061a6f55-5e81-422a-a5de-9922a0f4e723" opacity="1.000" fill="none" stroke="#b0e8a1" stroke-width="3.574" stroke-opacity="1.000" stroke-linecap="round" stroke-linejoin="round" d="M 723.095 794.872 Q 723.032 794.988 723.000 795.121 Q 722.969 795.254 722.981 795.321 Q 722.994 795.388 722.976 795.514 Q 722.957 795.639 723.207 796.147 Q 723.456 796.654 723.655 796.995 Q 723.854 797.336 724.032 797.521 Q 724.210 797.705 724.334 797.772 Q 724.458 797.838 724.715 797.742 Q 724.972 797.645 725.276 797.084 Q 725.580 796.523 726.100 795.696 Q 726.620 794.869 726.958 794.322 Q 727.296 793.775 728.017 792.833 Q 728.739 791.890 729.168 791.402 Q 729.597 790.913 729.987 790.505 Q 730.376 790.096 731.350 789.143 "></path>
  </g>
</svg>